<svg width="122" height="122" viewBox="0 0 122 122" fill="none" xmlns="http://www.w3.org/2000/svg">
<path d="M60.5 27C52.6787 27.0085 45.1802 30.1075 39.6497 35.6171C34.1192 41.1268 31.0085 48.5971 31 56.3889C31 63.7968 34.9312 73.4249 41.5174 82.1457C46.5773 88.8444 54.2184 96 60.5 96C66.7816 96 74.4227 88.8444 79.4826 82.1457C86.0688 73.4249 90 63.7968 90 56.3889C89.9915 48.5971 86.8808 41.1268 81.3503 35.6171C75.8198 30.1075 68.3213 27.0085 60.5 27ZM77.4304 80.6092C71.5433 88.4068 64.8961 93.4444 60.5 93.4444C56.1039 93.4444 49.4567 88.4068 43.5696 80.6092C37.413 72.4378 33.5652 63.1579 33.5652 56.3889C33.5652 49.2722 36.403 42.4471 41.4542 37.4149C46.5055 32.3826 53.3565 29.5556 60.5 29.5556C67.6435 29.5556 74.4945 32.3826 79.5458 37.4149C84.597 42.4471 87.4348 49.2722 87.4348 56.3889C87.4348 63.1579 83.603 72.4378 77.4304 80.6092ZM56.6522 64.0556C56.6522 61.0056 55.436 58.0805 53.2712 55.9238C51.1063 53.7672 48.1702 52.5556 45.1087 52.5556C44.0882 52.5556 43.1095 52.9594 42.3879 53.6783C41.6663 54.3972 41.2609 55.3722 41.2609 56.3889C41.2609 59.4389 42.4771 62.3639 44.6419 64.5206C46.8067 66.6773 49.7428 67.8889 52.8043 67.8889C53.8249 67.8889 54.8036 67.485 55.5252 66.7661C56.2468 66.0472 56.6522 65.0722 56.6522 64.0556ZM52.8043 65.3333C50.4232 65.3333 48.1395 64.391 46.4558 62.7136C44.772 61.0362 43.8261 58.7611 43.8261 56.3889C43.8261 56.05 43.9612 55.725 44.2018 55.4854C44.4423 55.2457 44.7685 55.1111 45.1087 55.1111C47.4899 55.1111 49.7735 56.0535 51.4573 57.7309C53.141 59.4083 54.087 61.6833 54.087 64.0556C54.087 64.3944 53.9518 64.7195 53.7113 64.9591C53.4708 65.1987 53.1445 65.3333 52.8043 65.3333ZM75.8913 52.5556C72.8298 52.5556 69.8937 53.7672 67.7288 55.9238C65.564 58.0805 64.3478 61.0056 64.3478 64.0556C64.3478 65.0722 64.7532 66.0472 65.4748 66.7661C66.1964 67.485 67.1751 67.8889 68.1957 67.8889C71.2572 67.8889 74.1933 66.6773 76.3581 64.5206C78.5229 62.3639 79.7391 59.4389 79.7391 56.3889C79.7391 55.3722 79.3337 54.3972 78.6121 53.6783C77.8905 52.9594 76.9118 52.5556 75.8913 52.5556ZM68.1957 65.3333C67.8555 65.3333 67.5292 65.1987 67.2887 64.9591C67.0482 64.7195 66.913 64.3944 66.913 64.0556C66.913 61.6833 67.859 59.4083 69.5427 57.7309C71.2265 56.0535 73.5101 55.1111 75.8913 55.1111C76.2315 55.1111 76.5577 55.2457 76.7982 55.4854C77.0388 55.725 77.1739 56.05 77.1739 56.3889C77.1739 58.7611 76.228 61.0362 74.5442 62.7136C72.8605 64.391 70.5768 65.3333 68.1957 65.3333ZM66.913 79.3889C66.913 79.7278 66.7779 80.0528 66.5374 80.2924C66.2968 80.532 65.9706 80.6667 65.6304 80.6667H55.3696C55.0294 80.6667 54.7032 80.532 54.4626 80.2924C54.2221 80.0528 54.087 79.7278 54.087 79.3889C54.087 79.05 54.2221 78.725 54.4626 78.4854C54.7032 78.2457 55.0294 78.1111 55.3696 78.1111H65.6304C65.9706 78.1111 66.2968 78.2457 66.5374 78.4854C66.7779 78.725 66.913 79.05 66.913 79.3889Z" fill="#F6F6F6"/>
<circle cx="61" cy="61" r="59.65" stroke="url(#paint0_linear_1360_164)" stroke-width="2.7"/>
<defs>
<linearGradient id="paint0_linear_1360_164" x1="6.14389" y1="61.0001" x2="120.596" y2="61.0001" gradientUnits="userSpaceOnUse">
<stop offset="0.0833333" stop-color="#7D13FF"/>
<stop offset="0.458333" stop-color="#2C52D1"/>
<stop offset="0.890625" stop-color="#15BFFD"/>
</linearGradient>
</defs>
</svg>
