<svg width="122" height="122" viewBox="0 0 122 122" fill="none" xmlns="http://www.w3.org/2000/svg">
<path d="M86.5044 72.0731C81.0019 72.6956 75.4327 71.8427 70.3679 69.6019C65.3031 67.3612 60.9249 63.8132 57.6823 59.3217C54.4397 54.8302 52.4492 49.5569 51.9151 44.0424C51.3809 38.5278 52.3222 32.9706 54.6426 27.9404C47.2149 30.1781 40.8861 35.1021 36.8891 41.7532C32.892 48.4042 31.513 56.306 33.0206 63.9193C34.5281 71.5325 38.8144 78.312 45.0444 82.9371C51.2743 87.5623 59.0018 89.7017 66.7215 88.9388C71.9919 88.3236 77.0139 86.3563 81.3003 83.2277C85.5868 80.0991 88.9924 75.9153 91.1869 71.0821C89.6526 71.5276 88.0875 71.8589 86.5044 72.0731Z" stroke="#F6F6F6" stroke-width="2.7" stroke-linecap="round" stroke-linejoin="round"/>
<circle cx="61" cy="61" r="59.65" stroke="url(#paint0_linear_1360_173)" stroke-width="2.7"/>
<defs>
<linearGradient id="paint0_linear_1360_173" x1="6.14389" y1="61.0001" x2="120.596" y2="61.0001" gradientUnits="userSpaceOnUse">
<stop offset="0.0833333" stop-color="#7D13FF"/>
<stop offset="0.458333" stop-color="#2C52D1"/>
<stop offset="0.890625" stop-color="#15BFFD"/>
</linearGradient>
</defs>
</svg>
