<svg width="122" height="122" viewBox="0 0 122 122" fill="none" xmlns="http://www.w3.org/2000/svg">
<path d="M84.4476 61.2365C84.1411 65.5708 82.6435 69.7363 80.1199 73.2734C77.5962 76.8105 74.1446 79.5818 70.1458 81.2817C66.147 82.9815 61.7564 83.5438 57.4582 82.9065C53.1601 82.2693 49.1215 80.4572 45.788 77.6702M80.164 45.6631C89.268 45.593 89.4068 50.7499 80.5337 57.6371C70.1655 65.1624 58.2255 70.238 45.6122 72.4818C34.4958 74.0918 31.0502 70.3169 37.4581 63.7932" stroke="#F6F6F6" stroke-width="2.3" stroke-linecap="round" stroke-linejoin="round"/>
<path d="M75.6552 40.8268C92.1687 36.9225 102.042 39.0508 99.7621 46.1799C97.4823 53.309 83.4945 63.4325 65.8438 70.9356C48.1931 78.4386 31.1403 81.4629 24.4189 78.2545C17.6975 75.0461 22.8938 66.394 37.144 57.221" stroke="#F6F6F6" stroke-width="2.3" stroke-linecap="round" stroke-linejoin="round"/>
<path d="M41.3314 72.7989C38.6343 68.9106 37.1526 64.309 37.0742 59.5775C36.9957 54.846 38.324 50.1977 40.8907 46.2221C43.4402 42.273 47.1153 39.1791 51.4412 37.3402C55.7672 35.5013 60.5452 35.0019 65.1579 35.9065C69.8024 36.8089 74.0745 39.0699 77.4325 42.403C80.7905 45.7361 83.0834 49.9911 84.0204 54.6288" stroke="#F6F6F6" stroke-width="2.3" stroke-linecap="round" stroke-linejoin="round"/>
<circle cx="61" cy="61" r="59.65" stroke="url(#paint0_linear_1360_167)" stroke-width="2.7"/>
<defs>
<linearGradient id="paint0_linear_1360_167" x1="6.14389" y1="61.0001" x2="120.596" y2="61.0001" gradientUnits="userSpaceOnUse">
<stop offset="0.0833333" stop-color="#7D13FF"/>
<stop offset="0.458333" stop-color="#2C52D1"/>
<stop offset="0.890625" stop-color="#15BFFD"/>
</linearGradient>
</defs>
</svg>
