<svg width="122" height="122" viewBox="0 0 122 122" fill="none" xmlns="http://www.w3.org/2000/svg">
<path d="M89.6892 32.7994C89.6651 32.6829 89.6082 32.5757 89.5253 32.4905C89.4424 32.4052 89.3369 32.3455 89.2212 32.3182C81.5084 30.4303 63.6916 37.1572 54.0287 46.821C52.3065 48.5304 50.7362 50.3865 49.3355 52.3683C46.357 52.0986 43.3786 52.3257 40.8426 53.4329C33.6816 56.5841 31.5981 64.8142 31.0166 68.3473C30.9851 68.5409 30.9986 68.7391 31.0559 68.9267C31.1133 69.1142 31.2131 69.286 31.3475 69.4288C31.4819 69.5715 31.6473 69.6814 31.831 69.7499C32.0146 69.8183 32.2116 69.8435 32.4065 69.8235L43.9048 68.5602C43.9127 69.4282 43.9648 70.2952 44.0608 71.1579C44.1208 71.7541 44.3866 72.3108 44.8125 72.732L49.2646 77.1878C49.6858 77.6143 50.2426 77.8804 50.8389 77.9401C51.6957 78.0357 52.5567 78.0878 53.4188 78.0962L52.1579 89.594C52.1382 89.7889 52.1636 89.9856 52.232 90.1691C52.3004 90.3527 52.4101 90.5179 52.5525 90.6523C52.695 90.7866 52.8664 90.8863 53.0535 90.9438C53.2405 91.0013 53.4383 91.0149 53.6315 90.9836C57.1631 90.4159 65.4035 88.3306 68.5337 81.1651C69.64 78.6243 69.8669 75.659 69.6116 72.6923C71.5976 71.2917 73.4575 69.7201 75.17 67.9953C84.8684 58.3428 91.5472 40.9032 89.6892 32.7994ZM66.5495 55.4911C65.7024 54.6435 65.1255 53.5635 64.8917 52.3877C64.6579 51.2119 64.7777 49.9932 65.2361 48.8856C65.6944 47.7779 66.4706 46.8312 67.4666 46.1652C68.4626 45.4991 69.6335 45.1436 70.8314 45.1436C72.0292 45.1436 73.2002 45.4991 74.1961 46.1652C75.1921 46.8312 75.9683 47.7779 76.4267 48.8856C76.885 49.9932 77.0049 51.2119 76.7711 52.3877C76.5373 53.5635 75.9604 54.6435 75.1132 55.4911C74.5514 56.0546 73.884 56.5017 73.1492 56.8068C72.4145 57.1118 71.6268 57.2688 70.8314 57.2688C70.0359 57.2688 69.2483 57.1118 68.5135 56.8068C67.7788 56.5017 67.1114 56.0546 66.5495 55.4911Z" stroke="#F6F6F6" stroke-width="2.3" stroke-linecap="round" stroke-linejoin="round"/>
<path d="M39.6313 75.3164C38.2353 75.4878 36.9366 76.1206 35.9414 77.1144C33.4741 79.5902 33.2402 88.7594 33.2402 88.7594C33.2402 88.7594 42.4151 88.5256 44.8839 86.0554C45.8817 85.0618 46.5156 83.761 46.6833 82.3628" stroke="#F6F6F6" stroke-width="2.3" stroke-linecap="round" stroke-linejoin="round"/>
<circle cx="61" cy="61" r="59.65" stroke="url(#paint0_linear_1360_176)" stroke-width="2.7"/>
<defs>
<linearGradient id="paint0_linear_1360_176" x1="6.14389" y1="61.0001" x2="120.596" y2="61.0001" gradientUnits="userSpaceOnUse">
<stop offset="0.0833333" stop-color="#7D13FF"/>
<stop offset="0.458333" stop-color="#2C52D1"/>
<stop offset="0.890625" stop-color="#15BFFD"/>
</linearGradient>
</defs>
</svg>
