<svg width="122" height="122" viewBox="0 0 122 122" fill="none" xmlns="http://www.w3.org/2000/svg">
<path d="M65.5553 64.979L59.39 48.9508C59.2975 48.7103 59.1342 48.5034 58.9218 48.3575C58.7094 48.2116 58.4577 48.1335 58.2 48.1335C57.9423 48.1335 57.6906 48.2116 57.4782 48.3575C57.2658 48.5034 57.1025 48.7103 57.01 48.9508L50.8447 64.979C50.7806 65.1455 50.6823 65.2968 50.5562 65.4229C50.43 65.5491 50.2788 65.6474 50.1123 65.7114L34.0841 71.8768C33.8436 71.9693 33.6367 72.1325 33.4908 72.345C33.3449 72.5574 33.2668 72.8091 33.2668 73.0668C33.2668 73.3245 33.3449 73.5761 33.4908 73.7886C33.6367 74.001 33.8436 74.1642 34.0841 74.2568L50.1123 80.4221C50.2788 80.4862 50.43 80.5844 50.5562 80.7106C50.6823 80.8368 50.7806 80.988 50.8447 81.1545L57.01 97.1827C57.1025 97.4233 57.2658 97.6301 57.4782 97.776C57.6906 97.9219 57.9423 98 58.2 98C58.4577 98 58.7094 97.9219 58.9218 97.776C59.1342 97.6301 59.2975 97.4233 59.39 97.1827L65.5553 81.1545C65.6194 80.988 65.7177 80.8368 65.8438 80.7106C65.97 80.5844 66.1212 80.4862 66.2878 80.4221L82.3159 74.2568C82.5565 74.1642 82.7633 74.001 82.9092 73.7886C83.0551 73.5761 83.1332 73.3245 83.1332 73.0668C83.1332 72.8091 83.0551 72.5574 82.9092 72.345C82.7633 72.1325 82.5565 71.9693 82.3159 71.8768L66.2878 65.7114C66.1212 65.6474 65.97 65.5491 65.8438 65.4229C65.7177 65.2968 65.6194 65.1455 65.5553 64.979ZM44.0333 37.3667L41.2 30L38.3667 37.3667L31 40.2L38.3667 43.0334L41.2 50.4L44.0333 43.0334L51.4 40.2L44.0333 37.3667ZM89.1783 44.3551L85.4 34.5333L81.6218 44.3551L71.8 48.1334L81.6218 51.9116L85.4 61.7334L89.1783 51.9116L99 48.1334L89.1783 44.3551Z" stroke="#F6F6F6" stroke-width="2" stroke-linecap="round" stroke-linejoin="round"/>
<circle cx="61" cy="61" r="59.65" stroke="url(#paint0_linear_1360_161)" stroke-width="2.7"/>
<defs>
<linearGradient id="paint0_linear_1360_161" x1="6.14389" y1="61.0001" x2="120.596" y2="61.0001" gradientUnits="userSpaceOnUse">
<stop offset="0.0833333" stop-color="#7D13FF"/>
<stop offset="0.458333" stop-color="#2C52D1"/>
<stop offset="0.890625" stop-color="#15BFFD"/>
</linearGradient>
</defs>
</svg>
